<?xml version="1.0" ?><!DOCTYPE svg  PUBLIC '-//W3C//DTD SVG 1.1//EN'  'http://www.w3.org/Graphics/SVG/1.1/DTD/svg11.dtd'><svg height="64px" id="_x35_3_x5F_dj_x5F_live_x5F_controller" style="enable-background:new 0 0 64 64;" version="1.1" viewBox="0 0 64 64" width="64px" xml:space="preserve" xmlns="http://www.w3.org/2000/svg" xmlns:xlink="http://www.w3.org/1999/xlink"><g><g><path d="M61,64H3c-1.654,0-3-1.346-3-3V15h2v46c0,0.551,0.448,1,1,1h58c0.552,0,1-0.449,1-1V3    c0-0.551-0.448-1-1-1H3C2.448,2,2,2.449,2,3v10H0V3c0-1.654,1.346-3,3-3h58c1.654,0,3,1.346,3,3v58C64,62.654,62.654,64,61,64z" style="fill:#222829;"/></g><g><path d="M14,23H6c-0.553,0-1-0.448-1-1v-8c0-0.552,0.447-1,1-1h8c0.553,0,1,0.448,1,1v8    C15,22.552,14.553,23,14,23z M7,21h6v-6H7V21z" style="fill:#222829;"/></g><g><path d="M26,23h-8c-0.553,0-1-0.448-1-1v-8c0-0.552,0.447-1,1-1h8c0.553,0,1,0.448,1,1v8    C27,22.552,26.553,23,26,23z M19,21h6v-6h-6V21z" style="fill:#222829;"/></g><g><path d="M38,23h-8c-0.553,0-1-0.448-1-1v-8c0-0.552,0.447-1,1-1h8c0.553,0,1,0.448,1,1v8    C39,22.552,38.553,23,38,23z M31,21h6v-6h-6V21z" style="fill:#222829;"/></g><g><path d="M50,23h-8c-0.553,0-1-0.448-1-1v-8c0-0.552,0.447-1,1-1h8c0.553,0,1,0.448,1,1v8    C51,22.552,50.553,23,50,23z M43,21h6v-6h-6V21z" style="fill:#222829;"/></g><g><path d="M14,35H6c-0.553,0-1-0.448-1-1v-8c0-0.552,0.447-1,1-1h8c0.553,0,1,0.448,1,1v8    C15,34.552,14.553,35,14,35z M7,33h6v-6H7V33z" style="fill:#222829;"/></g><g><path d="M26,35h-8c-0.553,0-1-0.448-1-1v-8c0-0.552,0.447-1,1-1h8c0.553,0,1,0.448,1,1v8    C27,34.552,26.553,35,26,35z M19,33h6v-6h-6V33z" style="fill:#222829;"/></g><g><path d="M38,35h-8c-0.553,0-1-0.448-1-1v-8c0-0.552,0.447-1,1-1h8c0.553,0,1,0.448,1,1v8    C39,34.552,38.553,35,38,35z M31,33h6v-6h-6V33z" style="fill:#222829;"/></g><g><path d="M50,35h-8c-0.553,0-1-0.448-1-1v-8c0-0.552,0.447-1,1-1h8c0.553,0,1,0.448,1,1v8    C51,34.552,50.553,35,50,35z M43,33h6v-6h-6V33z" style="fill:#222829;"/></g><g><path d="M14,47H6c-0.553,0-1-0.448-1-1v-8c0-0.552,0.447-1,1-1h8c0.553,0,1,0.448,1,1v8    C15,46.552,14.553,47,14,47z M7,45h6v-6H7V45z" style="fill:#222829;"/></g><g><path d="M26,47h-8c-0.553,0-1-0.448-1-1v-8c0-0.552,0.447-1,1-1h8c0.553,0,1,0.448,1,1v8    C27,46.552,26.553,47,26,47z M19,45h6v-6h-6V45z" style="fill:#222829;"/></g><g><path d="M38,47h-8c-0.553,0-1-0.448-1-1v-8c0-0.552,0.447-1,1-1h8c0.553,0,1,0.448,1,1v8    C39,46.552,38.553,47,38,47z M31,45h6v-6h-6V45z" style="fill:#222829;"/></g><g><path d="M50,47h-8c-0.553,0-1-0.448-1-1v-8c0-0.552,0.447-1,1-1h8c0.553,0,1,0.448,1,1v8    C51,46.552,50.553,47,50,47z M43,45h6v-6h-6V45z" style="fill:#222829;"/></g><g><path d="M14,59H6c-0.553,0-1-0.448-1-1v-8c0-0.552,0.447-1,1-1h8c0.553,0,1,0.448,1,1v8    C15,58.552,14.553,59,14,59z M7,57h6v-6H7V57z" style="fill:#222829;"/></g><g><path d="M26,59h-8c-0.553,0-1-0.448-1-1v-8c0-0.552,0.447-1,1-1h8c0.553,0,1,0.448,1,1v8    C27,58.552,26.553,59,26,59z M19,57h6v-6h-6V57z" style="fill:#222829;"/></g><g><path d="M38,59h-8c-0.553,0-1-0.448-1-1v-8c0-0.552,0.447-1,1-1h8c0.553,0,1,0.448,1,1v8    C39,58.552,38.553,59,38,59z M31,57h6v-6h-6V57z" style="fill:#222829;"/></g><g><path d="M50,59h-8c-0.553,0-1-0.448-1-1v-8c0-0.552,0.447-1,1-1h8c0.553,0,1,0.448,1,1v8    C51,58.552,50.553,59,50,59z M43,57h6v-6h-6V57z" style="fill:#222829;"/></g><g><rect height="10" style="fill:#222829;" width="2" x="56" y="13"/></g><g><rect height="11" style="fill:#222829;" width="2" x="56" y="26"/></g><g><rect height="2" style="fill:#222829;" width="6" x="54" y="25"/></g><g><rect height="2" style="fill:#222829;" width="2" x="58" y="49"/></g><g><rect height="2" style="fill:#222829;" width="2" x="58" y="45"/></g><g><rect height="2" style="fill:#222829;" width="2" x="58" y="53"/></g><g><rect height="2" style="fill:#222829;" width="2" x="58" y="57"/></g><g><rect height="2" style="fill:#222829;" width="2" x="54" y="49"/></g><g><rect height="2" style="fill:#222829;" width="2" x="54" y="45"/></g><g><rect height="2" style="fill:#222829;" width="2" x="54" y="53"/></g><g><rect height="2" style="fill:#222829;" width="2" x="54" y="57"/></g><g><rect height="2" style="fill:#222829;" width="10" x="41" y="5"/></g><g><rect height="2" style="fill:#222829;" width="10" x="29" y="5"/></g><g><rect height="2" style="fill:#222829;" width="10" x="17" y="5"/></g><g><rect height="2" style="fill:#222829;" width="2" x="5" y="5"/></g><g><rect height="2" style="fill:#222829;" width="6" x="54" y="41"/></g></g></svg>